# Made in Blockbench 4.0.1
mtllib steam_distiller_base.mtl

o base
v 1 0.25 1
v 1 0.25 0
v 1 0 1
v 1 0 0
v 0 0.25 0
v 0 0.25 1
v 0 0 0
v 0 0 1
vt 0.5 1
vt 0.75 1
vt 0.75 0.9375
vt 0.5 0.9375
vt 0.5 0.9375
vt 0.75 0.9375
vt 0.75 0.875
vt 0.5 0.875
vt 0.5 0.875
vt 0.75 0.875
vt 0.75 0.8125
vt 0.5 0.8125
vt 0.15625 0.5
vt 0.40625 0.5
vt 0.40625 0.4375
vt 0.15625 0.4375
vt 0.25 0.75
vt 0 0.75
vt 0 1
vt 0.25 1
vt 0.25 0.75
vt 0 0.75
vt 0 0.5
vt 0.25 0.5
vn 0 0 -1
vn 1 0 0
vn 0 0 1
vn -1 0 0
vn 0 1 0
vn 0 -1 0
usemtl m_0
f 4/4/1 7/3/1 5/2/1 2/1/1
f 3/8/2 4/7/2 2/6/2 1/5/2
f 8/12/3 3/11/3 1/10/3 6/9/3
f 7/16/4 8/15/4 6/14/4 5/13/4
f 6/20/5 1/19/5 2/18/5 5/17/5
f 7/24/6 4/23/6 3/22/6 8/21/6
o base_roof
v 0.5 0.625 0.5
v 1 0.25 1
v 1 0.25 0
v 0 0.25 1
v 0 0.25 0
vt 0.25 1
vt 0.25 0.75
vt 0.5 0.75
vt 0.5 1
vt 0.40625 0.5
vt 0.40625 0.75
vt 0.25 0.625
vt 0.40625 0.59375
vt 0.65625 0.59375
vt 0.53125 0.75
vt 0.65625 0.59375
vt 0.40625 0.59375
vt 0.53125 0.4375
vt 0 0.5
vt 0 0.25
vt 0.15625 0.375
vn 0 -1 0
vn 0.6 0.8 0
vn 0 0.8 0.6
vn 0 0.8 -0.6
vn -0.6 0.8 0
usemtl m_0
f 11/25/7 10/26/7 12/27/7 13/28/7
f 10/29/8 11/30/8 9/31/8
f 12/32/9 10/33/9 9/34/9
f 11/35/10 13/36/10 9/37/10
f 13/38/11 12/39/11 9/40/11
o chimney
v 0.6875 0.75 0.6875
v 0.6875 0.75 0.3125
v 0.6875 0.4375 0.6875
v 0.6875 0.4375 0.3125
v 0.3125 0.75 0.3125
v 0.3125 0.75 0.6875
v 0.3125 0.4375 0.3125
v 0.3125 0.4375 0.6875
vt 0.34375 0.4375
vt 0.4375 0.4375
vt 0.4375 0.359375
vt 0.34375 0.359375
vt 0.4375 0.4375
vt 0.53125 0.4375
vt 0.53125 0.359375
vt 0.4375 0.359375
vt 0.53125 0.4375
vt 0.625 0.4375
vt 0.625 0.359375
vt 0.53125 0.359375
vt 0.625 0.4375
vt 0.71875 0.4375
vt 0.71875 0.359375
vt 0.625 0.359375
vt 0.25 0.34375
vt 0.15625 0.34375
vt 0.15625 0.4375
vt 0.25 0.4375
vt 0.34375 0.4375
vt 0.25 0.4375
vt 0.25 0.34375
vt 0.34375 0.34375
vn 0 0 -1
vn 1 0 0
vn 0 0 1
vn -1 0 0
vn 0 1 0
vn 0 -1 0
usemtl m_0
f 17/44/12 20/43/12 18/42/12 15/41/12
f 16/48/13 17/47/13 15/46/13 14/45/13
f 21/52/14 16/51/14 14/50/14 19/49/14
f 20/56/15 21/55/15 19/54/15 18/53/15
f 19/60/16 14/59/16 15/58/16 18/57/16
f 20/64/17 17/63/17 16/62/17 21/61/17
o lip_long
v 0.6875 0.8125 0.375
v 0.6875 0.8125 0.3125
v 0.6875 0.75 0.375
v 0.6875 0.75 0.3125
v 0.3125 0.8125 0.3125
v 0.3125 0.8125 0.375
v 0.3125 0.75 0.3125
v 0.3125 0.75 0.375
vt 0.5 0.8125
vt 0.59375 0.8125
vt 0.59375 0.796875
vt 0.5 0.796875
vt 0.328125 0.34375
vt 0.34375 0.34375
vt 0.34375 0.328125
vt 0.328125 0.328125
vt 0.5 0.796875
vt 0.59375 0.796875
vt 0.59375 0.78125
vt 0.5 0.78125
vt 0.65625 0.671875
vt 0.671875 0.671875
vt 0.671875 0.65625
vt 0.65625 0.65625
vt 0.59375 0.765625
vt 0.5 0.765625
vt 0.5 0.78125
vt 0.59375 0.78125
vt 0.59375 0.765625
vt 0.5 0.765625
vt 0.5 0.75
vt 0.59375 0.75
vn 0 0 -1
vn 1 0 0
vn 0 0 1
vn -1 0 0
vn 0 1 0
vn 0 -1 0
usemtl m_0
f 25/68/18 28/67/18 26/66/18 23/65/18
f 24/72/19 25/71/19 23/70/19 22/69/19
f 29/76/20 24/75/20 22/74/20 27/73/20
f 28/80/21 29/79/21 27/78/21 26/77/21
f 27/84/22 22/83/22 23/82/22 26/81/22
f 28/88/23 25/87/23 24/86/23 29/85/23
o lip_long2
v 0.6875 0.8125 0.6875
v 0.6875 0.8125 0.625
v 0.6875 0.75 0.6875
v 0.6875 0.75 0.625
v 0.3125 0.8125 0.625
v 0.3125 0.8125 0.6875
v 0.3125 0.75 0.625
v 0.3125 0.75 0.6875
vt 0.59375 0.8125
vt 0.6875 0.8125
vt 0.6875 0.796875
vt 0.59375 0.796875
vt 0.65625 0.65625
vt 0.671875 0.65625
vt 0.671875 0.640625
vt 0.65625 0.640625
vt 0.59375 0.796875
vt 0.6875 0.796875
vt 0.6875 0.78125
vt 0.59375 0.78125
vt 0.65625 0.640625
vt 0.671875 0.640625
vt 0.671875 0.625
vt 0.65625 0.625
vt 0.6875 0.765625
vt 0.59375 0.765625
vt 0.59375 0.78125
vt 0.6875 0.78125
vt 0.6875 0.765625
vt 0.59375 0.765625
vt 0.59375 0.75
vt 0.6875 0.75
vn 0 0 -1
vn 1 0 0
vn 0 0 1
vn -1 0 0
vn 0 1 0
vn 0 -1 0
usemtl m_0
f 33/92/24 36/91/24 34/90/24 31/89/24
f 32/96/25 33/95/25 31/94/25 30/93/25
f 37/100/26 32/99/26 30/98/26 35/97/26
f 36/104/27 37/103/27 35/102/27 34/101/27
f 35/108/28 30/107/28 31/106/28 34/105/28
f 36/112/29 33/111/29 32/110/29 37/109/29
o lip_short
v 0.6875 0.8125 0.625
v 0.6875 0.8125 0.375
v 0.6875 0.75 0.625
v 0.6875 0.75 0.375
v 0.625 0.8125 0.375
v 0.625 0.8125 0.625
v 0.625 0.75 0.375
v 0.625 0.75 0.625
vt 0.65625 0.625
vt 0.671875 0.625
vt 0.671875 0.609375
vt 0.65625 0.609375
vt 0.59375 0.359375
vt 0.65625 0.359375
vt 0.65625 0.34375
vt 0.59375 0.34375
vt 0.65625 0.609375
vt 0.671875 0.609375
vt 0.671875 0.59375
vt 0.65625 0.59375
vt 0.15625 0.34375
vt 0.21875 0.34375
vt 0.21875 0.328125
vt 0.15625 0.328125
vt 0.234375 0.28125
vt 0.21875 0.28125
vt 0.21875 0.34375
vt 0.234375 0.34375
vt 0.25 0.34375
vt 0.234375 0.34375
vt 0.234375 0.28125
vt 0.25 0.28125
vn 0 0 -1
vn 1 -9.322068685965282e-18 0
vn 0 0 1
vn -1 9.322068685965282e-18 0
vn 9.322068685965282e-18 1 0
vn -9.322068685965282e-18 -1 0
usemtl m_0
f 41/116/30 44/115/30 42/114/30 39/113/30
f 40/120/31 41/119/31 39/118/31 38/117/31
f 45/124/32 40/123/32 38/122/32 43/121/32
f 44/128/33 45/127/33 43/126/33 42/125/33
f 43/132/34 38/131/34 39/130/34 42/129/34
f 44/136/35 41/135/35 40/134/35 45/133/35
o lip_short2
v 0.375 0.8125 0.625
v 0.375 0.8125 0.375
v 0.375 0.75 0.625
v 0.375 0.75 0.375
v 0.3125 0.8125 0.375
v 0.3125 0.8125 0.625
v 0.3125 0.75 0.375
v 0.3125 0.75 0.625
vt 0.65625 0.59375
vt 0.671875 0.59375
vt 0.671875 0.578125
vt 0.65625 0.578125
vt 0.25 0.34375
vt 0.3125 0.34375
vt 0.3125 0.328125
vt 0.25 0.328125
vt 0.65625 0.578125
vt 0.671875 0.578125
vt 0.671875 0.5625
vt 0.65625 0.5625
vt 0.65625 0.75
vt 0.71875 0.75
vt 0.71875 0.734375
vt 0.65625 0.734375
vt 0.671875 0.671875
vt 0.65625 0.671875
vt 0.65625 0.734375
vt 0.671875 0.734375
vt 0.328125 0.34375
vt 0.3125 0.34375
vt 0.3125 0.28125
vt 0.328125 0.28125
vn 0 0 -1
vn 1 -9.322068685965282e-18 0
vn 0 0 1
vn -1 9.322068685965282e-18 0
vn 9.322068685965282e-18 1 0
vn -9.322068685965282e-18 -1 0
usemtl m_0
f 49/140/36 52/139/36 50/138/36 47/137/36
f 48/144/37 49/143/37 47/142/37 46/141/37
f 53/148/38 48/147/38 46/146/38 51/145/38
f 52/152/39 53/151/39 51/150/39 50/149/39
f 51/156/40 46/155/40 47/154/40 50/153/40
f 52/160/41 49/159/41 48/158/41 53/157/41
o strut
v 0.0625 1 1
v 0.0625 1 0.9375
v 0.0625 0.25 1
v 0.0625 0.25 0.9375
v 0 1 0.9375
v 0 1 1
v 0 0.25 0.9375
v 0 0.25 1
vt 0.34375 0.359375
vt 0.359375 0.359375
vt 0.359375 0.171875
vt 0.34375 0.171875
vt 0.359375 0.359375
vt 0.375 0.359375
vt 0.375 0.171875
vt 0.359375 0.171875
vt 0.375 0.359375
vt 0.390625 0.359375
vt 0.390625 0.171875
vt 0.375 0.171875
vt 0.390625 0.359375
vt 0.40625 0.359375
vt 0.40625 0.171875
vt 0.390625 0.171875
vt 0.671875 0.546875
vt 0.65625 0.546875
vt 0.65625 0.5625
vt 0.671875 0.5625
vt 0.671875 0.546875
vt 0.65625 0.546875
vt 0.65625 0.53125
vt 0.671875 0.53125
vn 0 0 -1
vn 1 0 0
vn 0 0 1
vn -1 0 0
vn 0 1 0
vn 0 -1 0
usemtl m_0
f 57/164/42 60/163/42 58/162/42 55/161/42
f 56/168/43 57/167/43 55/166/43 54/165/43
f 61/172/44 56/171/44 54/170/44 59/169/44
f 60/176/45 61/175/45 59/174/45 58/173/45
f 59/180/46 54/179/46 55/178/46 58/177/46
f 60/184/47 57/183/47 56/182/47 61/181/47
o strut2
v 1 1 1
v 1 1 0.9375
v 1 0.25 1
v 1 0.25 0.9375
v 0.9375 1 0.9375
v 0.9375 1 1
v 0.9375 0.25 0.9375
v 0.9375 0.25 1
vt 0.40625 0.359375
vt 0.421875 0.359375
vt 0.421875 0.171875
vt 0.40625 0.171875
vt 0.421875 0.359375
vt 0.4375 0.359375
vt 0.4375 0.171875
vt 0.421875 0.171875
vt 0.4375 0.359375
vt 0.453125 0.359375
vt 0.453125 0.171875
vt 0.4375 0.171875
vt 0.453125 0.359375
vt 0.46875 0.359375
vt 0.46875 0.171875
vt 0.453125 0.171875
vt 0.671875 0.515625
vt 0.65625 0.515625
vt 0.65625 0.53125
vt 0.671875 0.53125
vt 0.671875 0.515625
vt 0.65625 0.515625
vt 0.65625 0.5
vt 0.671875 0.5
vn 0 0 -1
vn 1 0 0
vn 0 0 1
vn -1 0 0
vn 0 1 0
vn 0 -1 0
usemtl m_0
f 65/188/48 68/187/48 66/186/48 63/185/48
f 64/192/49 65/191/49 63/190/49 62/189/49
f 69/196/50 64/195/50 62/194/50 67/193/50
f 68/200/51 69/199/51 67/198/51 66/197/51
f 67/204/52 62/203/52 63/202/52 66/201/52
f 68/208/53 65/207/53 64/206/53 69/205/53
o strut3
v 1 1 0.0625
v 1 1 0
v 1 0.25 0.0625
v 1 0.25 0
v 0.9375 1 0
v 0.9375 1 0.0625
v 0.9375 0.25 0
v 0.9375 0.25 0.0625
vt 0.46875 0.359375
vt 0.484375 0.359375
vt 0.484375 0.171875
vt 0.46875 0.171875
vt 0.484375 0.359375
vt 0.5 0.359375
vt 0.5 0.171875
vt 0.484375 0.171875
vt 0.5 0.359375
vt 0.515625 0.359375
vt 0.515625 0.171875
vt 0.5 0.171875
vt 0.515625 0.359375
vt 0.53125 0.359375
vt 0.53125 0.171875
vt 0.515625 0.171875
vt 0.671875 0.484375
vt 0.65625 0.484375
vt 0.65625 0.5
vt 0.671875 0.5
vt 0.671875 0.484375
vt 0.65625 0.484375
vt 0.65625 0.46875
vt 0.671875 0.46875
vn 0 0 -1
vn 1 0 0
vn 0 0 1
vn -1 0 0
vn 0 1 0
vn 0 -1 0
usemtl m_0
f 73/212/54 76/211/54 74/210/54 71/209/54
f 72/216/55 73/215/55 71/214/55 70/213/55
f 77/220/56 72/219/56 70/218/56 75/217/56
f 76/224/57 77/223/57 75/222/57 74/221/57
f 75/228/58 70/227/58 71/226/58 74/225/58
f 76/232/59 73/231/59 72/230/59 77/229/59
o strut4
v 0.0625 1 0.0625
v 0.0625 1 0
v 0.0625 0.25 0.0625
v 0.0625 0.25 0
v 0 1 0
v 0 1 0.0625
v 0 0.25 0
v 0 0.25 0.0625
vt 0.53125 0.359375
vt 0.546875 0.359375
vt 0.546875 0.171875
vt 0.53125 0.171875
vt 0.546875 0.359375
vt 0.5625 0.359375
vt 0.5625 0.171875
vt 0.546875 0.171875
vt 0.5625 0.359375
vt 0.578125 0.359375
vt 0.578125 0.171875
vt 0.5625 0.171875
vt 0.578125 0.359375
vt 0.59375 0.359375
vt 0.59375 0.171875
vt 0.578125 0.171875
vt 0.671875 0.453125
vt 0.65625 0.453125
vt 0.65625 0.46875
vt 0.671875 0.46875
vt 0.671875 0.453125
vt 0.65625 0.453125
vt 0.65625 0.4375
vt 0.671875 0.4375
vn 0 0 -1
vn 1 0 0
vn 0 0 1
vn -1 0 0
vn 0 1 0
vn 0 -1 0
usemtl m_0
f 81/236/60 84/235/60 82/234/60 79/233/60
f 80/240/61 81/239/61 79/238/61 78/237/61
f 85/244/62 80/243/62 78/242/62 83/241/62
f 84/248/63 85/247/63 83/246/63 82/245/63
f 83/252/64 78/251/64 79/250/64 82/249/64
f 84/256/65 81/255/65 80/254/65 85/253/65